<?xml version="1.0" encoding="iso-8859-1"?>
<!-- Generator: Adobe Illustrator 23.0.3, SVG Export Plug-In . SVG Version: 6.00 Build 0)  -->
<svg version="1.1" id="Layer_1" xmlns="http://www.w3.org/2000/svg" xmlns:xlink="http://www.w3.org/1999/xlink" x="0px" y="0px"
	 viewBox="0 0 1280 1024" style="enable-background:new 0 0 1280 1024;" xml:space="preserve">
<path d="M733,204c5.977,1.325,12.04,2.349,17.918,4.022c45.793,13.033,75.302,56.085,72.003,104.848
	c-3.025,44.711-38.956,83.389-83.938,90.264c-26.708,4.082-51.256-1.443-73.53-16.828c-0.816-0.564-1.677-1.062-2.981-1.884
	c-13.437,10.233-26.962,20.533-40.487,30.833c-0.228-0.211-0.456-0.423-0.685-0.634c6.583-11.863,12.722-24.005,19.916-35.485
	c4.338-6.922,4.196-11.485-0.767-18.576c-42.533-60.768-4.176-146.453,69.252-155.643c1.12-0.14,2.2-0.603,3.299-0.916
	C719.667,204,726.333,204,733,204z M719.81,393.609c48.331-0.795,85.875-39.357,85.127-87.435
	c-0.723-46.466-39.742-84.172-86.435-83.525c-48.082,0.666-85.253,39.29-84.527,87.832
	C634.66,356.187,674.077,394.362,719.81,393.609z"/>
<path d="M402.591,525.697c-6.869-15.056-13.246-29.115-19.743-43.117c-0.496-1.068-1.698-2.085-2.811-2.547
	c-17.31-7.186-24.88-20.871-26.895-38.813c-3.971-35.348-0.47-69.75,11.713-103.246c6.091-16.747,16.095-29.53,34.13-34.062
	c19.597-4.924,34.345,5.696,36.87,26.395c0.498,4.082,0.072,8.277,0.072,13.733c-4.581-5.108-8.377-9.569-12.415-13.799
	c-10.911-11.43-29.747-6.985-33.94,8.073c-2.076,7.457-0.118,14.066,5.12,19.842c9.4,10.365,18.516,20.992,28.064,31.217
	c2.986,3.197,3.525,6.244,2.906,10.332c-1.167,7.702-1.789,15.488-2.739,24.16c9.367-2.142,18.01-4.115,26.649-6.099
	c1.783-0.41,3.55-0.888,5.333-1.298c13.674-3.145,24.866,2.607,30.182,15.669c10.658,26.187,21.24,52.405,31.855,78.609
	c3.934,9.711,7.926,19.398,11.798,29.133c5.47,13.753-0.273,27.93-13.34,33.135c-12.939,5.154-26.642-0.938-32.202-14.564
	c-11.435-28.024-22.737-56.104-34.098-84.159c-0.68-1.678-1.393-3.343-2.248-5.389c-4.795,1.124-9.408,2.206-14.524,3.406
	c3.834,8.44,7.459,16.447,11.107,24.443c6.351,13.923,12.774,27.814,19.061,41.766c8.346,18.52-3.06,36.266-23.394,36.31
	c-33.653,0.073-67.307,0.083-100.961-0.015c-12.976-0.038-23.432-8.823-25.101-20.655c-1.769-12.545,5.332-24.023,17.276-27.417
	c2.982-0.847,6.24-0.983,9.373-0.998c18.492-0.089,36.985-0.045,55.477-0.046C397.293,525.697,399.42,525.697,402.591,525.697z"/>
<path d="M782.146,408.947c5.473,0,10.266,0,15.559,0c0.097,1.41,0.281,2.833,0.281,4.257c0.014,44.817,0.053,89.633-0.012,134.45
	c-0.024,16.295-11.802,28.292-27.94,28.31c-66.309,0.074-132.618,0.069-198.928,0.004c-15.953-0.016-28.015-11.913-28.049-27.696
	c-0.098-45.15-0.044-90.3-0.05-135.449c0-1.141,0-2.282,0-3.763c5.318,0,10.222,0,15.872,0c0,2.642,0,5.244,0,7.847
	c-0.006,42.817-0.015,85.635-0.014,128.452c0,10.919,3.876,14.818,14.617,14.817c64.476-0.003,128.952,0.003,193.428,0.001
	c11.554,0,15.252-3.686,15.251-15.205c-0.001-43.151-0.01-86.301-0.016-129.452C782.146,413.542,782.146,411.565,782.146,408.947z"
	/>
<path d="M510.402,278.474c0.135,24.349-19.588,44.321-43.889,44.444c-24.333,0.123-44.31-19.562-44.51-43.862
	c-0.203-24.552,19.757-44.744,44.177-44.691C490.618,234.417,510.266,254.015,510.402,278.474z"/>
<path d="M528.142,458.179c-1.129,7.181-5.159,13.031-11.237,15.317c-6.72,2.527-10.003,1.099-12.651-5.457
	c-5.044-12.489-10.031-25.002-15.176-37.45c-6.327-15.308-19.239-22.019-35.407-18.198c-3.1,0.733-4.85,0.08-6.847-2.179
	c-16.108-18.22-32.347-36.324-48.495-54.509c-7.187-8.094-7.01-17.602,0.297-23.853c7.106-6.079,16.286-4.864,23.349,3.061
	c33.248,37.306,66.552,74.563,99.663,111.99C524.457,450.085,526.005,454.393,528.142,458.179z"/>
<path d="M564.016,452.581c0-1.865,0-3.469,0-5.336c70.641,0,141.061,0,211.736,0c0,1.766,0,3.367,0,5.336
	C705.381,452.581,634.98,452.581,564.016,452.581z"/>
<path d="M757.818,482.687c-10.395,0-20.79,0-31.185,0c-0.296-0.36-0.592-0.72-0.888-1.08c0.976-0.744,1.94-2.115,2.93-2.134
	c8.948-0.171,17.902-0.174,26.85-0.013c1,0.018,1.976,1.363,2.963,2.092C758.265,481.93,758.041,482.309,757.818,482.687z"/>
<path d="M610.272,509.014c-5.324,0-10.651,0.099-15.969-0.078c-1.145-0.038-2.256-1.073-3.383-1.649
	c1.017-0.542,2.03-1.546,3.053-1.556c10.979-0.113,21.961-0.111,32.94-0.001c1.044,0.01,2.079,0.965,3.118,1.482
	c-1.096,0.606-2.176,1.7-3.291,1.737c-5.484,0.181-10.978,0.082-16.468,0.082C610.272,509.025,610.272,509.019,610.272,509.014z"/>
<path d="M675.874,481.083c1.45-0.576,2.897-1.637,4.351-1.648c7.882-0.059,15.821-0.287,23.673,0.07
	c-0.123,1.05-0.247,2.099-0.37,3.149c-9.031,0-18.061,0-27.092,0C676.249,482.131,676.062,481.607,675.874,481.083z"/>
<path d="M660.494,509.024c-4.662,0-9.326,0.078-13.984-0.069c-0.877-0.028-1.726-0.948-2.589-1.457
	c0.786-0.605,1.565-1.727,2.358-1.738c9.489-0.122,18.98-0.123,28.468-0.001c0.788,0.01,1.561,1.141,2.341,1.752
	c-0.87,0.499-1.727,1.401-2.611,1.428c-4.657,0.144-9.322,0.068-13.984,0.068C660.494,509.013,660.494,509.019,660.494,509.024z"/>
<path d="M596.951,531.848c4.482,0.006,8.967-0.071,13.445,0.069c0.916,0.029,1.806,0.87,2.708,1.337
	c-0.909,0.622-1.809,1.771-2.727,1.784c-8.962,0.134-17.928,0.121-26.891,0.006c-0.831-0.011-1.649-1.016-2.473-1.559
	c0.831-0.548,1.646-1.539,2.495-1.569C587.984,531.758,592.469,531.842,596.951,531.848z"/>
<path d="M638.118,535.122c-3.657-0.001-7.318,0.097-10.967-0.071c-0.898-0.041-1.756-0.95-2.633-1.46
	c0.803-0.581,1.598-1.654,2.411-1.667c7.477-0.127,14.959-0.121,22.437-0.001c0.867,0.014,1.719,0.953,2.578,1.463
	c-0.952,0.579-1.879,1.605-2.86,1.659C645.438,535.243,641.775,535.123,638.118,535.122z"/>
<path d="M679.457,531.857c2.33,0,4.67-0.127,6.982,0.076c0.712,0.063,1.346,1.026,2.015,1.578c-0.686,0.531-1.36,1.501-2.061,1.521
	c-4.822,0.135-9.651,0.135-14.473-0.001c-0.673-0.019-1.319-1.019-1.977-1.564c0.675-0.531,1.32-1.466,2.031-1.52
	c2.482-0.189,4.987-0.073,7.483-0.073C679.457,531.867,679.457,531.862,679.457,531.857z"/>
<path d="M573.808,482.904c0.445-1.503,0.658-3.087,0.958-3.104c3.913-0.219,7.839-0.272,11.758-0.182
	c0.394,0.009,1.23,1.534,1.045,1.813c-0.441,0.664-1.356,1.379-2.107,1.409C581.87,482.983,578.269,482.904,573.808,482.904z"/>
<path d="M752.661,296.979c1.704-2.892,2.718-5.751,4.663-7.661c3.384-3.323,6.958-6.962,11.18-8.761
	c3.409-1.452,7.889-0.388,11.894-0.44c-0.852,3.384-0.984,7.188-2.677,10.079c-7.921,13.526-7.978,26.79,0.154,40.146
	c0.517,0.85,1.068,1.741,1.304,2.687c0.581,2.326,0.986,4.695,1.463,7.047c-2.677,0.412-5.425,1.426-8.016,1.118
	c-6.865-0.815-11.898-4.87-15.713-10.452c-1.489-2.179-2.695-4.552-4.237-7.192c-15.069,4.608-30.603,6.481-46.264,5.304
	c-10.723-0.806-21.422-2.743-31.944-5.037c-4.711-1.027-9.317-3.66-13.334-6.474c-5.83-4.084-5.878-9.845-0.171-14.039
	c3.682-2.706,7.974-4.964,12.336-6.302c24.644-7.559,49.516-7.399,74.452-1.355C749.344,296.033,750.919,296.504,752.661,296.979z
	 M683.817,303.136c-3.746,0.099-6.855,3.34-6.84,7.132c0.015,4.072,3.295,7.124,7.43,6.914c3.897-0.198,6.771-3.354,6.597-7.244
	C690.837,306.186,687.511,303.039,683.817,303.136z"/>
<path d="M637.502,481.115c0.463-0.786,0.738-1.562,1.267-2.081c0.919-0.903,1.89-1.891,3.037-2.38
	c0.926-0.394,2.143-0.105,3.23-0.12c-0.231,0.919-0.267,1.952-0.727,2.738c-2.151,3.674-2.167,7.276,0.042,10.904
	c0.141,0.231,0.29,0.473,0.354,0.73c0.158,0.632,0.268,1.275,0.397,1.914c-0.727,0.112-1.473,0.387-2.177,0.304
	c-1.865-0.221-3.232-1.323-4.268-2.839c-0.404-0.592-0.732-1.236-1.151-1.953c-4.093,1.252-8.312,1.76-12.566,1.441
	c-2.913-0.219-5.819-0.745-8.676-1.368c-1.279-0.279-2.531-0.994-3.622-1.758c-1.583-1.109-1.597-2.674-0.046-3.813
	c1-0.735,2.166-1.348,3.351-1.712c6.694-2.053,13.449-2.01,20.222-0.368C636.602,480.858,637.029,480.986,637.502,481.115z
	 M618.804,482.787c-1.018,0.027-1.862,0.907-1.858,1.937c0.004,1.106,0.895,1.935,2.018,1.878c1.058-0.054,1.839-0.911,1.792-1.968
	C620.71,483.615,619.807,482.761,618.804,482.787z"/>
<path d="M731.465,503.679c0.463-0.786,0.738-1.562,1.267-2.081c0.919-0.903,1.89-1.891,3.037-2.38
	c0.926-0.394,2.143-0.105,3.23-0.12c-0.231,0.919-0.267,1.952-0.727,2.738c-2.151,3.674-2.167,7.276,0.042,10.904
	c0.141,0.231,0.29,0.473,0.354,0.73c0.158,0.632,0.268,1.275,0.397,1.914c-0.727,0.112-1.474,0.387-2.177,0.304
	c-1.865-0.221-3.232-1.323-4.268-2.839c-0.404-0.592-0.732-1.236-1.151-1.953c-4.093,1.252-8.312,1.76-12.566,1.441
	c-2.912-0.219-5.819-0.745-8.676-1.368c-1.279-0.279-2.531-0.994-3.622-1.758c-1.583-1.109-1.597-2.674-0.046-3.813
	c1-0.735,2.166-1.348,3.351-1.712c6.694-2.053,13.449-2.01,20.222-0.368C730.564,503.422,730.992,503.55,731.465,503.679z
	 M712.766,505.351c-1.018,0.027-1.862,0.907-1.858,1.937c0.004,1.106,0.895,1.935,2.018,1.878c1.058-0.054,1.839-0.911,1.792-1.968
	C714.673,506.18,713.77,505.325,712.766,505.351z"/>
<path d="M723.654,529.454c6.773-1.642,13.528-1.685,20.222,0.368c1.185,0.363,2.351,0.977,3.351,1.712
	c1.55,1.139,1.537,2.704-0.046,3.813c-1.091,0.764-2.342,1.479-3.622,1.758c-2.858,0.623-5.764,1.149-8.676,1.368
	c-4.254,0.32-8.473-0.189-12.566-1.441c-0.419,0.717-0.746,1.362-1.151,1.953c-1.036,1.516-2.403,2.618-4.268,2.839
	c-0.704,0.084-1.45-0.192-2.177-0.304c0.129-0.639,0.24-1.282,0.397-1.914c0.064-0.257,0.214-0.499,0.354-0.73
	c2.209-3.628,2.193-7.23,0.042-10.904c-0.46-0.785-0.496-1.819-0.727-2.738c1.088,0.014,2.305-0.275,3.23,0.12
	c1.147,0.488,2.118,1.477,3.037,2.38c0.528,0.519,0.804,1.295,1.267,2.081C722.794,529.687,723.221,529.559,723.654,529.454z
	 M739.067,533.336c-0.047,1.057,0.733,1.914,1.792,1.968c1.123,0.057,2.014-0.772,2.018-1.878c0.004-1.03-0.84-1.91-1.858-1.937
	C740.016,531.462,739.113,532.317,739.067,533.336z"/>
</svg>
