<?xml version="1.0" encoding="iso-8859-1"?>
<!-- Generator: Adobe Illustrator 23.0.3, SVG Export Plug-In . SVG Version: 6.00 Build 0)  -->
<svg version="1.1" id="Layer_1" xmlns="http://www.w3.org/2000/svg" xmlns:xlink="http://www.w3.org/1999/xlink" x="0px" y="0px"
	 viewBox="0 0 1280 1024" style="enable-background:new 0 0 1280 1024;" xml:space="preserve">
<path d="M550.311,499.94c-3.74-0.408-6.867-0.933-10.009-1.045c-4.047-0.145-8.105,0.043-12.159,0.085
	c-3.541,0.037-7.085-0.012-10.621,0.122c-6.106,0.232-12.207,0.57-18.31,0.879c-1.716,0.087-3.428,0.229-5.414,0.363
	c0.089-0.955-0.07-1.753,0.244-2.252c4.17-6.621,5.419-14.248,7.423-21.596c2.265-8.31,7.056-13.638,15.984-14.544
	c0.763-0.077,1.504-0.378,2.45-0.626c-2.866-1.921-7.64-1.054-8.088-6.341c1.657-0.113,3.238-0.221,4.818-0.329
	c-0.078-0.225-0.156-0.45-0.234-0.675c1.062-0.529,2.159-1.556,3.179-1.485c2.362,0.164,5.581-0.867,6.077,3.266
	c0.047,0.393,2.434,0.505,4.463,0.883c-1.792,1.874-3.331,3.484-4.997,5.227c2.743,1.643,5.605,3.53,8.624,5.118
	c3.049,1.604,5.215,3.955,6.548,7.023c3.288,7.572,6.474,15.188,9.64,22.811C550.251,497.602,550.154,498.553,550.311,499.94z"/>
<path d="M493.665,459.361c-1.083-1.284-1.892-2.242-2.761-3.273c5.824-2.193,7.073-2.33,12.463-1.05
	c-1.94,1.531-3.346,2.64-4.822,3.805c3.207,1.008,6.888,1.445,8.691,5.234c-5.269,4.341-6.623,10.61-8.282,16.676
	c-0.528,1.929-1.352,2.639-3.311,2.609c-5.859-0.088-11.72-0.032-18.448-0.032C481.296,474.048,482.164,463.296,493.665,459.361z"/>
<path d="M581.353,474.098c-0.099-1.952-0.198-3.904-0.313-6.179c-9.334-0.865-18.598-1.723-27.861-2.582
	c-0.018,0.119-0.035,0.238-0.053,0.357c7.229,1.69,14.415,3.611,21.707,4.963c3.212,0.595,4.464,1.774,3.921,4.932
	c-0.174,1.011-0.154,2.056-0.929,3.072c-0.104-0.524-0.383-1.084-0.285-1.567c0.767-3.767-1.048-5.083-4.555-5.724
	c-6.601-1.207-13.12-2.862-19.874-3.742c3.699,1.481,7.396,2.969,11.099,4.441c2.182,0.867,4.371,1.715,6.561,2.561
	c4.71,1.821,5.375,3.364,3.569,9.349c-0.228-1.024-0.514-1.555-0.421-2.008c0.794-3.856-1.028-5.531-4.578-6.713
	c-6.067-2.021-11.949-4.598-18.191-6.416c3.644,2.227,7.284,4.461,10.935,6.679c2.095,1.273,4.207,2.519,6.312,3.777
	c3.251,1.944,3.97,4.616,2.237,8.686c-0.158-0.321-0.41-0.584-0.364-0.776c1.152-4.821-1.887-6.826-5.505-8.791
	c-5.012-2.723-9.825-5.813-15.101-8.313c1.735,1.53,3.46,3.071,5.206,4.587c3.32,2.882,6.459,6.023,10.033,8.547
	c3.742,2.642,2.719,5.974,1.973,9.478c-0.115-0.395-0.392-0.822-0.32-1.179c0.852-4.228-1.387-6.731-4.504-9.136
	c-4.252-3.281-8.187-6.972-12.817-10.015c0.698,0.884,1.382,1.78,2.096,2.651c3.564,4.346,6.968,8.84,10.762,12.975
	c2.714,2.957,1.737,6.082,1.09,9.402c-0.109-0.301-0.357-0.629-0.306-0.899c0.865-4.533-1.486-7.686-4.291-10.831
	c-3.64-4.08-7.007-8.403-11.006-12.276c3.225,5.49,6.358,11.037,9.708,16.45c2.092,3.38,3.725,6.781,3.02,10.884
	c-0.074,0.433-0.222,0.853-0.361,1.375c-0.382-0.269-0.65-0.386-0.639-0.46c0.798-5.287-1.955-9.367-4.484-13.571
	c-3.946-6.561-7.664-13.263-11.72-19.755c-1.044-1.671-2.81-3.111-4.565-4.069c-2.914-1.59-6.088-2.705-9.334-4.097
	c0.684-1.023,1.184-1.769,1.839-2.748c1.789,0.78,3.641,1.365,5.266,2.332c7.367,4.387,15.443,2.873,23.323,2.929
	c8.672,0.061,17.345,0.014,26.111,0.014c0,2.092,0,4.372,0,6.651c-0.246,0.007-0.492,0.014-0.738,0.021c0-1.848,0-3.696,0-5.556
	c-9.724,0-19.067,0-28.41,0c-0.009,0.2-0.017,0.4-0.026,0.6c4.759,0.493,9.516,1.016,14.279,1.469
	c2.849,0.271,5.706,0.549,8.564,0.609c2.369,0.05,3.35,0.989,3.029,3.371c-0.19,1.41-0.181,2.848-0.262,4.273
	C581.905,474.118,581.629,474.108,581.353,474.098z"/>
<path d="M516.048,450.965c-0.268,3.136-2.114,2.594-3.755,1.935c-3.882-1.559-7.707-3.258-11.552-4.908
	c-8.913-3.824-17.823-7.653-26.735-11.48c-0.282-0.121-0.679-0.161-0.826-0.375c-0.556-0.807-1.031-1.669-1.536-2.511
	c0.971-0.152,2.108-0.71,2.888-0.392c7.09,2.889,14.124,5.916,21.161,8.933C502.44,445.061,509.172,447.992,516.048,450.965z"/>
</svg>
