<?xml version="1.0" encoding="iso-8859-1"?>
<!-- Generator: Adobe Illustrator 23.0.3, SVG Export Plug-In . SVG Version: 6.00 Build 0)  -->
<svg version="1.1" id="Layer_1" xmlns="http://www.w3.org/2000/svg" xmlns:xlink="http://www.w3.org/1999/xlink" x="0px" y="0px"
	 viewBox="0 0 560.001 288" style="enable-background:new 0 0 560.001 288;" xml:space="preserve">
<path d="M226.573,185.475c-4.629-10.487-9.444-21.235-14.024-32.081c-0.35-0.828,0.643-2.729,1.55-3.483
	c2.292-1.903,5.134-3.169,7.33-5.16c15.299-13.869,32.787-15.841,51.14-8.199c15.359,6.395,31.061,10.935,47.42,13.498
	c0.329,0.052,0.661,0.1,0.982,0.183c3.893,1.011,8.586,1.762,8.621,6.786c0.037,5.197-4.578,7.003-8.761,7.133
	c-5.242,0.162-10.521-0.973-15.789-1.506c-8.582-0.868-17.153-1.957-25.757-2.41c-3.013-0.159-6.565,0.418-8.662,4.158
	c1.013,0.47,1.669,1.063,2.096,0.929c10.669-3.349,21.126-0.731,31.617,1.023c4.105,0.687,8.299,2.195,12.299,1.796
	c4.583-0.457,9.507-1.808,13.356-4.238c5.03-3.176,4.324-8.438,1.728-13.025c7.988-6.574,15.86-12.709,23.32-19.308
	c5.362-4.743,11.093-3.826,16.813-1.881c3.767,1.281,4.374,5.105,2.313,7.891c-9.573,12.941-16.221,28.485-32.716,35.284
	c-8.429,3.474-16.452,8.103-24.271,12.847c-9.347,5.671-18.993,6.643-29.28,3.762c-8.5-2.38-17.08-4.517-25.468-7.244
	c-10.685-3.474-20.939-3.285-30.959,2.051c-1.02,0.543-2.149,0.892-3.247,1.274C227.941,185.655,227.583,185.536,226.573,185.475z"
	/>
<path d="M312.54,81.197c1.771-2.274,3.258-4.474,5.033-6.41c7.214-7.867,16.258-9.866,24.224-5.482
	c7.972,4.387,11.334,13.757,8.59,23.904c-2.725,10.076-9.078,17.726-16.824,24.22c-5.724,4.799-11.882,9.096-18.018,13.37
	c-1.24,0.864-3.79,1.443-4.825,0.764c-12.388-8.129-25.17-16.073-32.433-29.613c-2.589-4.826-4.269-10.6-4.62-16.053
	c-0.478-7.425,3.11-13.557,10.169-16.927c7.622-3.639,14.693-2.122,20.847,3.246C307.513,74.686,309.697,77.897,312.54,81.197z"/>
<path d="M186.838,153.541c5.899-1.873,10.903-3.678,16.041-4.927c1.14-0.277,3.5,1.063,4.04,2.237
	c5.983,13.007,11.783,26.1,17.394,39.272c0.456,1.071-0.394,3.534-1.411,4.247c-3.531,2.477-7.308,4.668-11.207,6.512
	c-1.074,0.508-3.85-0.139-4.239-0.99C200.552,184.773,193.896,169.541,186.838,153.541z"/>
</svg>
