<?xml version="1.0" encoding="iso-8859-1"?>
<!-- Generator: Adobe Illustrator 23.0.3, SVG Export Plug-In . SVG Version: 6.00 Build 0)  -->
<svg version="1.1" id="Layer_1" xmlns="http://www.w3.org/2000/svg" xmlns:xlink="http://www.w3.org/1999/xlink" x="0px" y="0px"
	 viewBox="0 0 1280 1024" style="enable-background:new 0 0 1280 1024;" xml:space="preserve">
<g>
	<path d="M562.704,586.948c-101.536,0.87-189.993-85.858-190.837-187.108c-0.908-108.859,83.577-196.409,190.431-197.339
		c103.517-0.901,192.22,84.849,193.213,186.782C756.589,499.905,672.605,586.006,562.704,586.948z M563.908,570.654
		c95.241,0.668,174.995-78.533,175.501-174.286c0.515-97.425-77.744-176.447-175.536-177.247
		c-95.409-0.781-174.72,77.605-175.872,173.82C386.831,490.533,465.454,569.963,563.908,570.654z"/>
	<path d="M566.117,484.303c-34.037,0-68.074,0.068-102.111-0.027c-18.032-0.05-25.476-7.704-25.506-25.986
		c-0.069-42.064-0.12-84.128-0.077-126.191c0.019-19.048,8.053-27.02,26.898-27.019c67.753,0.004,135.505,0.019,203.258,0.035
		c17.696,0.004,25.845,8.009,25.894,25.857c0.115,42.062,0.161,84.125,0.089,126.188c-0.035,20.223-6.961,27.105-27.297,27.173
		c-33.716,0.113-67.432,0.031-101.148,0.031C566.117,484.343,566.117,484.323,566.117,484.303z M465.181,321.445
		c30.74,28.006,59.532,54.458,88.599,80.602c10.508,9.452,15.01,9.293,25.696-0.111c13.232-11.644,26.17-23.624,39.187-35.511
		c15.944-14.56,31.839-29.175,49.08-44.981C599.61,321.445,533.535,321.445,465.181,321.445z M667.217,468.345
		c-23.353-21.387-44.745-40.978-65.996-60.44c-31.818,24.73-35.323,24.734-69.578,0.192c-21.285,19.51-42.707,39.147-65.727,60.248
		C533.993,468.345,599.278,468.345,667.217,468.345z M612.262,395.593c22.196,20.663,43.403,40.407,65.805,61.262
		c0-40.936,0-79.94,0-120.815C655.494,356.469,634.255,375.69,612.262,395.593z M454.711,457.198
		c22.953-21.394,44.203-41.202,66.07-61.584c-21.919-19.841-43.316-39.21-66.07-59.807
		C454.711,377.023,454.711,415.954,454.711,457.198z"/>
</g>
</svg>
