<?xml version="1.0" encoding="iso-8859-1"?>
<!-- Generator: Adobe Illustrator 23.0.3, SVG Export Plug-In . SVG Version: 6.00 Build 0)  -->
<svg version="1.1" id="Layer_1" xmlns="http://www.w3.org/2000/svg" xmlns:xlink="http://www.w3.org/1999/xlink" x="0px" y="0px"
	 viewBox="0 0 1280 1024" style="enable-background:new 0 0 1280 1024;" xml:space="preserve">
<path d="M814,352c-7.854,6.571-15.214,13.88-23.678,19.539c-12.673,8.473-26.122,15.787-39.301,23.631
	c-3.334-3.88-5.981-7.081-8.755-10.167c-7.923-8.818-20.413-9.74-29.074-2.201c-8.503,7.401-10.193,20.515-1.788,28.482
	c8.807,8.349,8.214,15.372,2.216,24.704c-6.185,9.624-11.104,20.056-19.922,28.893c-0.609-4.504-0.982-8.33-1.664-12.1
	c-1.724-9.53-5.625-18.123-12.042-25.383c-1.048-1.186-3.739-1.878-5.336-1.474c-20.62,5.217-41.167,10.726-61.765,16.036
	c-5.019,1.294-7.595,4.762-8.707,9.324c-1.655,6.783-2.739,13.703-4.277,20.517c-3.664,16.231-12.518,28.694-27.229,37.292
	c-1.257-10.252-2.072-20.137-3.793-29.861c-1.296-7.325-3.707-14.458-5.715-21.651c-0.979-3.507-3.23-4.74-7.052-4.639
	c-31.817,0.843-63.639,1.45-95.459,2.185c-2.979,0.069-5.948,0.531-9.241,0.524c11.217-3.949,14.2-12.806,15.974-23.401
	c1.745-10.425,5.245-20.59,8.486-30.705c0.712-2.221,3.251-4.591,5.505-5.477c47.068-18.491,94.217-36.776,141.346-55.112
	c1.816-0.706,3.588-1.525,5.208-2.743c-51.237,9.517-98.773,29.633-146.265,50.718c4.859-9.417,8.401-19.821,17.636-26.074
	c20.018-13.554,26.809-33.021,25.717-56.051c-0.375-7.908-3.277-13.366-12.394-27.014c6.877,0.502,13.053,0.735,19.175,1.439
	c17.9,2.059,35.017,6.919,50.348,16.538c12.758,8.005,26.111,11.058,41.243,10.4c31.638-1.375,63.31-0.687,94.845,2.827
	c15.097,1.682,29.83,4.492,43.802,11.089c11.863,5.601,24.33,9.914,36.45,14.988c6.167,2.582,12.065,5.708,15.506,11.925
	C814,350,814,351,814,352z M751.023,336.008c-6.655,0.104-11.967,5.478-11.986,12.125c-0.02,6.851,5.54,12.188,12.518,12.017
	c6.729-0.165,11.779-5.501,11.649-12.31C763.076,341.122,757.704,335.903,751.023,336.008z M680.008,403.399
	c-15.629-20.984-26.177-43.964-27.937-70.477C644.795,356.378,656.865,386.888,680.008,403.399z M692.22,392.543
	c-19.806-35.606-19.806-35.606-22.639-59.031C663.221,352.255,673.319,379.373,692.22,392.543z"/>
<path d="M582,184c1.531,0.526,3.04,1.129,4.596,1.565c22.192,6.219,35.542,26.874,32.393,50.152
	c-2.879,21.281-22.117,37.518-44.437,37.504c-22.552-0.014-40.946-16.582-44.043-39.673c-2.853-21.273,11.403-42.112,32.849-48.045
	c1.566-0.433,3.096-0.999,4.643-1.503C572.667,184,577.333,184,582,184z M610.389,216.275
	c-9.509,12.623-22.257,15.004-35.653,15.022c-13.562,0.018-26.311-2.726-35.354-14.986c-0.035,6.836,2.383,10.875,8.619,14.697
	c8.346,5.115,17.65,6.763,27.222,6.713c9.574-0.05,18.897-1.74,27.106-7.086C607.027,227.576,610.808,223.732,610.389,216.275z"/>
<path d="M538.282,457.744c5.329,0,10.671,0.224,15.983-0.082c3.279-0.189,4.743,1.075,5.772,4.015
	c3.291,9.405,4.411,18.774,3.137,28.871c-5.981,47.388-11.331,94.855-17.108,142.269c-1.651,13.552-14.282,22.911-27.471,21.001
	c-13.451-1.948-22.636-14.133-21.042-27.542c5.244-44.127,10.381-88.267,15.578-132.399c1.246-10.578,2.709-21.133,3.766-31.729
	c0.312-3.125,1.612-3.919,4.4-3.868c5.66,0.103,11.323,0.031,16.986,0.031C538.282,458.121,538.282,457.932,538.282,457.744z"/>
<path d="M630.6,443.526c2.182,18.357,4.282,36.008,6.379,53.659c3.887,32.71,7.786,65.418,11.651,98.13
	c1.249,10.573,2.632,21.138,3.55,31.741c1.186,13.686-8.042,25.063-21.291,26.785c-13.037,1.694-25.253-7.241-27.091-20.834
	c-3.254-24.065-5.902-48.212-8.765-72.329c-2.137-18.008-4.24-36.019-6.27-54.039c-0.172-1.528-0.284-3.702,0.585-4.612
	c11.29-11.821,15.151-26.657,17.547-42.137c0.203-1.312,0.598-2.595,0.769-3.91c0.846-6.487,4.003-10.182,11.035-10.346
	C622.449,445.548,626.172,444.351,630.6,443.526z"/>
<path d="M354.705,531.432c4.85-7.549,10.056-14.004,13.403-21.311c3.55-7.752,6.508-16.154,7.652-24.554
	c2.589-19.013-6.265-33.41-20.871-44.784C340.915,429.9,325,422.847,308.37,417.206c-1.569-0.532-3.153-1.017-4.992-2.83
	c8.931-2.121,17.787-4.661,26.809-6.274c17.378-3.107,34.647-1.829,51.163,4.35c10.425,3.9,19.887,3.656,29.645-1.615
	c6.564-3.545,13.563-6.284,20.883-9.618c-0.126,1.405-0.111,2.445-0.325,3.437c-1.645,7.638-3.524,15.23-4.97,22.904
	c-3.154,16.74,3.013,25.623,20.495,28.978c-1.728,0.283-2.742,0.532-3.767,0.605c-12.354,0.877-20.432,7.144-26.576,18.023
	c-7.501,13.281-16.172,26.001-25.34,38.21c-7.203,9.593-16.714,16.776-29.405,18.023
	C359.725,531.623,357.418,531.432,354.705,531.432z"/>
<path d="M516.643,294.647c5.672,11.081,5.55,22.213,1.92,33.246c-1.435,4.362-4.061,8.787-7.299,12.03
	c-26.965,27.013-44.056,58.927-49.366,96.927c-1.378,9.862-9.256,15.711-18.763,14.19c-8.629-1.38-14.049-9.669-12.672-18.967
	c8.257-55.764,36.164-99.636,80.65-133.499C512.816,297.277,514.603,296.091,516.643,294.647z"/>
<path d="M728.649,381.996c2.286,1.326,6.736,2.987,9.936,5.982c4.703,4.401,8.413,9.846,12.745,14.669
	c2.332,2.596,2.254,5.102,0.418,7.651c-4.902,6.805-11.461,11.557-19.3,14.336c-1.427,0.506-4.11-0.249-5.171-1.39
	c-4.637-4.986-9.045-10.208-13.236-15.578c-3.923-5.027-4.35-10.76-1.615-16.451C715.178,385.484,720.11,382.707,728.649,381.996z"
	/>
<path d="M663.733,303.062c-4.181,0-6.931-0.039-9.68,0.007c-13.312,0.222-26.643,0.987-39.927,0.484
	c-6.602-0.25-13.467-1.973-19.59-4.525c-9.016-3.757-17.475-8.85-26.812-13.707c1.565-0.189,2.688-0.441,3.811-0.443
	c13.65-0.026,27.3-0.074,40.949,0.001C626.058,284.952,648.227,292.689,663.733,303.062z"/>
</svg>
