<?xml version="1.0" encoding="iso-8859-1"?>
<!-- Generator: Adobe Illustrator 23.0.3, SVG Export Plug-In . SVG Version: 6.00 Build 0)  -->
<svg version="1.1" id="Layer_1" xmlns="http://www.w3.org/2000/svg" xmlns:xlink="http://www.w3.org/1999/xlink" x="0px" y="0px"
	 viewBox="0 0 560.001 288" style="enable-background:new 0 0 560.001 288;" xml:space="preserve">
<path d="M292.086-111.145c4.48,0.236,25.769,1.498,52.367,8.917c19.987,5.575,44.533,15.061,44.535,15.062l0,0
	c-0.001-0.001,14.147-9.522,27.093-15.329c6.702-3.006,17.71-7.824,32.766-8.696c4.227-0.245,17.295-0.672,32.915,4.778
	c5.112,1.783,16.233,6.198,27.705,15.839c3.926,3.299,11.376,10.138,18.137,20.814c3.129,4.941,9.811,15.728,12.478,31.504
	c1.193,7.058,2.192,18.719-1.04,32.174c-5.503,22.905-21.092,41.95-21.454,42.572l0,0c0,0-1.821,1.938-2.137,3.656
	c-0.258,1.402,0.09,2.863,0.862,4.633c8.944,20.52,14.986,41.881,17.974,64.086c0.903,6.711,1.808,13.423,2.713,20.134
	c0,10.333,0,20.667,0,31c-0.291,1.431-0.745,2.85-0.848,4.295c-2.871,40.054-14.357,77.531-35.337,111.696
	c-40.624,66.154-99.198,106.781-175.703,121.031c-9.617,1.791-19.404,2.675-29.112,3.979c-10,0-20,0-30,0
	c-1.289-0.282-2.566-0.733-3.868-0.82c-26.964-1.79-53.113-7.494-77.856-18.268C99.147,344.843,47.184,280.727,29.049,189.535
	C27.114,179.807,26.322,169.851,25,160c0-10,0-20,0-30c0.29-1.432,0.746-2.853,0.845-4.298c2.159-31.23,9.592-61.205,23.404-89.241
	c19.559-39.701,45.169-71.616,76.836-95.642c0,0,47.842-36.271,110.31-47.764C265.205-112.247,287.212-111.402,292.086-111.145z
	 M380.278-72.704c-89.823-44.127-223.896-25.932-298.176,83.859c-71.649,105.903-42.51,235.865,30.836,304.141
	c0.738-2.326,1.401-4.54,2.14-6.73c18.083-53.626,51.859-93.055,104.398-115.592c3.235-1.388,5.567-1.157,8.666,0.665
	c35.09,20.631,70.359,20.715,105.504,0.134c3.085-1.807,5.464-2.106,8.705-0.726c47.958,20.408,80.428,55.686,99.68,103.649
	c2.49,6.204,4.444,12.623,6.868,19.58c40.401-40.684,64.172-88.67,70.583-144.964c4.743-41.648-1.474-81.768-17.95-120.469
	c-42.872,25.805-86.004,12.611-109.748-10.68c-13.35-13.096-21.919-28.842-25.296-47.221
	C362.137-30.74,367.235-52.616,380.278-72.704z M480.17-50.386c-1.556-14.113-9.621-23.701-21.096-24.447
	c-7.567-0.492-15.335-1.217-22.212,3.592c-7.387,5.166-10.3,12.65-11.176,21.057c-14.562,1.162-23.98,9.67-24.642,21.913
	c-1.135,21,5.097,29.297,24.603,32.758c2.299,15.651,10.431,23.786,23.308,24.597c19.084,1.201,29.658-6.247,31.767-24.67
	c15.232-2.222,25.635-10.42,24.389-30.783C504.311-39.449,496.367-47.727,480.17-50.386z M197.004,108.733
	c-0.09,46.242,37.536,84.173,83.601,84.277c46.484,0.105,84.328-37.557,84.405-83.998c0.076-46.104-37.717-83.958-83.871-84.008
	C234.905,24.954,197.094,62.584,197.004,108.733z M442.061,4.961c0.143,5.302,2.849,7.878,8.079,8.03
	c1.663,0.048,3.33,0.02,4.994,0.008c6.641-0.05,8.978-2.325,9.061-8.977c0.065-5.26,0.013-10.521,0.013-15.561
	c1.132-0.268,1.455-0.409,1.779-0.411c4.328-0.035,8.657-0.029,12.985-0.077c7.772-0.087,10.026-2.518,10.028-10.754
	c0.002-8.713-2.147-11.116-10.106-11.187c-4.916-0.043-9.833-0.008-14.904-0.008c0-5.607,0.04-10.427-0.009-15.246
	c-0.075-7.228-2.712-9.774-10.031-9.794c-9.353-0.026-11.816,1.988-11.927,9.899c-0.069,4.928-0.013,9.858-0.013,15.126
	c-6.096,0-11.566-0.119-17.029,0.034c-5.296,0.149-7.81,2.832-7.969,8.127c-0.055,1.83-0.064,3.664-0.015,5.493
	c0.146,5.492,2.773,8.181,8.352,8.301c5.31,0.114,10.625,0.025,16.68,0.025C442.029-5.963,441.915-0.498,442.061,4.961z"/>
</svg>
