<?xml version="1.0" encoding="iso-8859-1"?>
<!-- Generator: Adobe Illustrator 23.0.3, SVG Export Plug-In . SVG Version: 6.00 Build 0)  -->
<svg version="1.1" id="Layer_1" xmlns="http://www.w3.org/2000/svg" xmlns:xlink="http://www.w3.org/1999/xlink" x="0px" y="0px"
	 viewBox="0 0 1280 1024" style="enable-background:new 0 0 1280 1024;" xml:space="preserve">
<g>
	<g>
		<path d="M702.813,499.904c0-95.549,0-190.467,0-285.686c-57.353,0-114.44,0-172.263,0c0,2.033,0,3.975,0,5.917
			c0.001,16.831,0.006,33.663-0.001,50.494c-0.001,1.498,0.476,3.389-0.243,4.409c-1.382,1.959-3.505,4.795-5.244,4.742
			c-2.122-0.064-4.497-2.451-6.107-4.38c-0.854-1.024-0.402-3.205-0.404-4.864c-0.023-21.164-0.026-42.329-0.018-63.493
			c0.001-1.472,0.13-2.944,0.217-4.776c65.435,0,130.626,0,196.312,0c0,38.313,0,76.391,0,115.076c34.545,0,68.601,0,102.9,0
			c0,65.176,0,129.742,0,194.658c-99.681,0-199.102,0-299.023,0c-0.143-1.495-0.394-2.906-0.396-4.317
			c-0.02-17.831-0.082-35.663,0.101-53.493c0.024-2.3,0.805-5.103,2.282-6.709c1.099-1.194,4.584-1.79,5.771-0.936
			c1.841,1.325,3.621,4.078,3.696,6.284c0.367,10.82,0.16,21.659,0.158,32.491c-0.001,4.788,0,9.575,0,14.584
			C588.263,499.904,645.352,499.904,702.813,499.904z M715.264,499.777c30.573,0,60.609,0,90.596,0c0-56.915,0-113.44,0-169.968
			c-30.379,0-60.407,0-90.596,0C715.264,386.65,715.264,443.064,715.264,499.777z"/>
		<path d="M490.839,480.267c-8.115-12.898-15.981-25.397-23.845-37.897c-11.606-18.448-23.439-36.757-34.77-55.373
			c-23.607-38.784-1.371-88.768,43.167-97.465c32.103-6.269,65.559,16.72,72.818,49.909c3.256,14.889,1.773,29.209-5.255,42.687
			c-16.608,31.85-33.464,63.57-50.234,95.334C492.276,478.304,491.66,479.053,490.839,480.267z M489.633,455.98
			c0.855-0.672,1.212-0.817,1.348-1.078c14.305-27.263,29.436-54.135,42.667-81.911c15.829-33.231-7.595-70.568-44.374-72.187
			c-20.165-0.888-36.667,6.614-47.573,23.885c-10.91,17.276-11.143,35.61-0.759,53.034
			C456.619,404.029,473.255,429.763,489.633,455.98z"/>
		<path d="M611.963,394.406c-18.287,0-36.172,0-54.353,0c0-18.7,0-37.085,0-55.865c18.089,0,36.09,0,54.353,0
			C611.963,357.12,611.963,375.528,611.963,394.406z M569.604,382.285c10.29,0,20.315,0,30.29,0c0-10.838,0-21.262,0-31.802
			c-10.219,0-20.12,0-30.29,0C569.604,361.205,569.604,371.608,569.604,382.285z"/>
		<path d="M623.707,338.344c18.286,0,36.047,0,54.161,0c0,18.713,0,37.232,0,56.065c-17.996,0-35.88,0-54.161,0
			C623.707,375.747,623.707,357.254,623.707,338.344z M665.947,382.307c0-10.755,0-21.182,0-31.69c-10.283,0-20.298,0-30.406,0
			c0,10.736,0,21.018,0,31.69C645.647,382.307,655.549,382.307,665.947,382.307z"/>
		<path d="M611.869,311.936c-18.129,0-36.032,0-54.245,0c0-18.632,0-37.013,0-55.719c18.088,0,35.989,0,54.245,0
			C611.869,274.587,611.869,292.983,611.869,311.936z M600.023,268.241c-10.42,0-20.312,0-30.377,0c0,10.695,0,21.061,0,31.521
			c10.324,0,20.33,0,30.377,0C600.023,289.099,600.023,278.84,600.023,268.241z"/>
		<path d="M623.674,256.089c18.143,0,35.926,0,54.13,0c0,18.517,0,37.02,0,55.813c-17.97,0-35.869,0-54.13,0
			C623.674,293.426,623.674,275.048,623.674,256.089z M665.96,268.325c-10.251,0-20.247,0-30.251,0c0,10.774,0,21.135,0,31.538
			c10.268,0,20.156,0,30.251,0C665.96,289.183,665.96,278.807,665.96,268.325z"/>
		<path d="M557.708,420.953c18.148,0,36.051,0,54.235,0c0,18.654,0,37.061,0,55.787c-18.015,0-35.926,0-54.235,0
			C557.708,458.403,557.708,440.018,557.708,420.953z M569.676,432.938c0,11.005,0,21.379,0,31.839c10.247,0,20.148,0,30.146,0
			c0-10.785,0-21.299,0-31.839C589.651,432.938,579.87,432.938,569.676,432.938z"/>
		<path d="M623.707,420.945c18.143,0,36.049,0,54.236,0c0,18.664,0,37.074,0,55.799c-18.013,0-35.927,0-54.236,0
			C623.707,458.396,623.707,440.008,623.707,420.945z M635.714,432.972c0,11.048,0,21.43,0,31.772c10.296,0,20.206,0,30.232,0
			c0-10.706,0-21.11,0-31.772C655.785,432.972,645.887,432.972,635.714,432.972z"/>
		<path d="M782.053,368.252c0,15.639,0,30.888,0,46.471c-15.046,0-29.926,0-45.169,0c0-15.366,0-30.737,0-46.471
			C751.849,368.252,766.708,368.252,782.053,368.252z M769.789,402.797c0-7.376,0-14.858,0-22.614c-6.923,0-13.785,0-20.943,0
			c0,7.633,0,15,0,22.614C755.868,402.797,762.617,402.797,769.789,402.797z"/>
		<path d="M736.765,479.809c0-15.585,0-30.819,0-46.42c15.044,0,29.902,0,45.111,0c0,15.308,0,30.673,0,46.42
			C767.053,479.809,752.19,479.809,736.765,479.809z M769.975,445.457c-6.889,0-13.871,0-21.123,0c0,7.455,0,14.822,0,22.433
			c7.165,0,14.027,0,21.123,0C769.975,460.374,769.975,453.127,769.975,445.457z"/>
		<path d="M486.248,374.135c-12.889-0.11-24.94-11.97-24.909-24.515c0.032-12.984,12.244-25.123,25.036-24.887
			c12.895,0.238,24.886,12.274,24.673,24.766C510.831,362.309,498.818,374.242,486.248,374.135z M486.644,336.733
			c-8.066-0.094-13.257,4.682-13.303,12.238c-0.048,8.006,4.726,13.077,12.396,13.164c8.032,0.091,13.269-4.725,13.315-12.245
			C499.103,341.894,494.32,336.823,486.644,336.733z"/>
	</g>
</g>
</svg>
