<?xml version="1.0" encoding="iso-8859-1"?>
<!-- Generator: Adobe Illustrator 23.0.3, SVG Export Plug-In . SVG Version: 6.00 Build 0)  -->
<svg version="1.1" id="Layer_1" xmlns="http://www.w3.org/2000/svg" xmlns:xlink="http://www.w3.org/1999/xlink" x="0px" y="0px"
	 viewBox="0 0 1280 1024" style="enable-background:new 0 0 1280 1024;" xml:space="preserve">
<g>
	<path d="M642.018,732.685c-12.252,0-24.505,0-36.757,0c-2.747-0.649-5.461-1.621-8.245-1.901
		c-117.293-11.773-212.129-93.373-240.605-207.648c-3.899-15.646-5.684-31.819-8.448-47.748c0-12.252,0-24.505,0-36.757
		c0.702-3.52,1.72-7.01,2.062-10.564c14.82-153.937,159.264-266.67,312.488-243.831c128.134,19.099,223.135,119.928,235.16,249.587
		c11.648,125.6-66.431,245.168-186.645,283.99C688.748,725.007,665.058,727.839,642.018,732.685z M380.379,456.45
		c-0.166,133.618,109.058,243.483,242.396,243.819c133.594,0.336,243.699-108.853,244.125-242.097
		c0.429-134.182-109.165-244.415-243.01-244.424C490.272,213.739,380.545,323.102,380.379,456.45z"/>
	<path d="M576.122,393.484c-18.805,14.836-18.716,34.762-14.208,54.895c6.645,29.672,20.631,55.812,43.005,76.733
		c15.514,14.507,32.795,24.798,55.454,14.402c17.241,29.855,34.118,59.081,50.932,88.197c-20.632,18.501-46.816,21.46-70.289,7.826
		c-29.101-16.903-51.802-40.872-71.977-67.286c-39.281-51.431-69.193-107.494-82.643-171.411
		c-1.508-7.165-2.579-14.462-3.266-21.753c-3.322-35.224,7.305-53.429,41.568-70.477
		C541.737,334.06,558.817,363.579,576.122,393.484z"/>
	<path d="M592.648,395.325c-4.67-4.225-9.016-6.666-11.21-10.379c-15.926-26.951-31.345-54.2-47.09-81.258
		c-4.728-8.126-2.368-13.924,5.093-18.388c7.323-4.381,14.826-8.462,22.107-12.911c7.988-4.882,14.13-2.579,18.477,4.878
		c15.969,27.391,31.889,54.815,47.329,82.505c1.837,3.294,2.408,10.665,0.499,12.118
		C617.048,380.112,605.31,387.107,592.648,395.325z"/>
	<path d="M709.511,497.773c1.948,4.608,3.456,9.467,5.917,13.782c15.297,26.811,30.775,53.52,46.27,80.219
		c4.816,8.298,3.135,14.442-5.202,19.3c-36.937,21.526-32.245,21.82-51.52-11.884c-11.495-20.101-22.952-40.231-34.866-60.084
		c-5.934-9.889-3.956-16.626,5.995-21.903c9.261-4.912,18.314-10.218,27.458-15.35C705.546,500.493,707.528,499.133,709.511,497.773
		z"/>
</g>
</svg>
