<?xml version="1.0" encoding="iso-8859-1"?>
<!-- Generator: Adobe Illustrator 23.0.3, SVG Export Plug-In . SVG Version: 6.00 Build 0)  -->
<svg version="1.1" id="Layer_1" xmlns="http://www.w3.org/2000/svg" xmlns:xlink="http://www.w3.org/1999/xlink" x="0px" y="0px"
	 viewBox="0 0 560.001 288" style="enable-background:new 0 0 560.001 288;" xml:space="preserve">
<path d="M237.234,99.391c-3.277-15.765-0.05-29.129,11.098-40.064c9.112-8.937,20.147-13.433,32.904-13.337
	c13.913,0.104,25.588,5.438,34.812,15.859c7.929,8.958,9.174,14.257,9.296,37.542c2.254,0,4.523-0.02,6.792,0.004
	c8.562,0.09,11.868,2.95,12.549,11.432c1.52,18.929,2.862,37.873,4.295,56.809c1.534,20.265,3.089,40.528,4.634,60.791
	c0.089,1.163,0.196,2.325,0.266,3.489c0.578,9.642-1.808,12.147-11.615,12.148c-40.992,0.005-81.984,0.006-122.976-0.002
	c-9.323-0.002-11.857-2.636-11.154-12.09c2.988-40.202,6.035-80.399,9.116-120.593c0.698-9.102,3.883-11.924,13.056-11.987
	C232.416,99.379,234.524,99.391,237.234,99.391z M281.645,160.961c-3.155-3.187-5.156-5.414-7.368-7.407
	c-10.082-9.085-24.38-6.79-31.013,5.095c-5.009,8.975-3.931,17.9,2.161,25.753c8.75,11.279,19.652,20.357,31.95,27.567
	c1.93,1.132,5.721,0.99,7.702-0.176c11.852-6.976,22.111-15.965,30.912-26.539c1.673-2.009,2.955-4.453,3.966-6.884
	c4.118-9.894,0.72-21.234-7.905-26.965c-8.645-5.745-17.716-4.381-26.02,4.028C284.523,156.958,283.34,158.803,281.645,160.961z
	 M280.831,99.389c10.482,0,20.966,0.102,31.444-0.112c1.532-0.031,4.167-1.368,4.351-2.434c0.723-4.212,1.38-8.658,0.789-12.836
	c-2.641-18.652-22.017-32.311-40.968-29.578c-22.313,3.219-35.668,22.528-31.702,40.15c0.838,3.725,1.902,4.963,5.641,4.884
	C260.529,99.248,270.681,99.39,280.831,99.389z M240.122,117.953c-3.458,4.312-2.935,9.097,1.107,11.989
	c3.925,2.809,9.628,1.618,12.123-2.531c2.612-4.344,0.919-9.223-4.155-11.703c-0.931,3.413,3.264,8.778-2.802,10.038
	C240.87,126.893,242.077,120.777,240.122,117.953z M321.892,117.773c-1.835,3.338-0.893,9.021-6.227,7.987
	c-6.123-1.187-1.952-6.619-2.864-10.054c-4.936,2.435-6.671,7.051-4.371,11.372c2.266,4.258,8.026,5.713,12.075,3.051
	C324.681,127.384,325.359,122.675,321.892,117.773z"/>
</svg>
