<?xml version="1.0" encoding="iso-8859-1"?>
<!-- Generator: Adobe Illustrator 23.0.3, SVG Export Plug-In . SVG Version: 6.00 Build 0)  -->
<svg version="1.1" id="Layer_1" xmlns="http://www.w3.org/2000/svg" xmlns:xlink="http://www.w3.org/1999/xlink" x="0px" y="0px"
	 viewBox="0 0 560.001 288" style="enable-background:new 0 0 560.001 288;" xml:space="preserve">
<path d="M288.24,174.96c-5.36,0-10.72,0-16.08,0c0-2.712-0.063-5.426,0.026-8.135c0.046-1.407-0.195-2.381-1.542-3.215
	c-1.057-0.655-1.787-1.885-2.562-2.934c-0.793-1.074-1.202-1.994-1.436-2.48c-1.06-2.207-4.108-8.102-8.407-16.355
	c0.755-1.464,1.658-2.191,2.811-1.802c0.963,0.325,1.909,0.987,2.612,1.736c1.267,1.351,2.346,2.877,3.503,4.331
	c0.104-0.033,0.209-0.067,0.313-0.1c0-0.455,0-0.909,0-1.364c0-7.359-0.003-14.718,0.005-22.077c0.001-0.638-0.08-1.331,0.137-1.9
	c0.249-0.654,0.656-1.44,1.223-1.748c2.005-1.088,4.027,0.217,4.033,2.513c0.014,5.092-0.037,14.283,0.022,14.998
	c0.006,0.071,0.022,0.272,0.167,0.387c0.161,0.128,0.384,0.071,0.402,0.066c0.193-0.053,0.342-0.226,0.387-0.445c0,0,0,0,0,0
	c0-0.052,0.026-4.869,0.026-9.598c0-3.559-0.02-7.119,0.008-10.678c0.017-2.157,1.651-3.371,3.605-2.742
	c0.497,0.16,0.888,0.398,1.178,0.727c0.674,0.766,0.653,1.808,0.647,2.168c-0.029,1.72,0.016,9.333,0.021,19.79
	c0,0.057,0.017,0.228,0.138,0.319c0.104,0.079,0.274,0.087,0.405,0.013c0.137-0.077,0.18-0.212,0.189-0.244
	c0,0,0.006-11.073,0.011-16.798c0.001-1.386,0.662-2.397,1.737-2.712c1.981-0.58,3.568,0.559,3.575,2.626
	c0.013,3.904-0.003,16.289,0.015,16.798c0.004,0.11,0.018,0.417,0.199,0.512c0.079,0.042,0.183,0.038,0.261,0
	c0.165-0.081,0.204-0.313,0.218-0.392c0.112-0.658-0.181-8.697-0.004-11.695c0.042-0.709,0.155-1.848,0.976-2.511
	c0.449-0.363,1.042-0.548,1.758-0.536c1.649,0.028,2.575,1.123,2.584,3.052c0.026,5.198,0.053,10.396,0.084,15.594
	c0.002,0.387,0.041,0.774,0.069,1.26c0.492-0.074,0.874-0.151,1.26-0.188c3.616-0.347,6.685,0.738,8.78,3.772
	c0.269,0.39,0.413,0.722,0.494,0.891c1.318,2.748,1.161,5.172,1.095,5.826c-0.03,0.291-0.089,0.743-0.218,1.294
	c-0.936,3.756-2.559,5.967-3.842,7.281c-2.637,2.702-7.08,6.779-10.14,8.854c-0.344,0.233-0.646,0.772-0.67,1.186
	C288.22,171.852,288.253,173.407,288.24,174.96z M274.08,150.586c-0.045,3.041,1.212,5.572,3.092,7.854
	c2.846,3.455,6.341,6.189,9.871,8.887c0.624,0.477,1.085,0.265,1.6-0.111c3.462-2.531,6.749-5.255,9.503-8.57
	c1.37-1.649,2.429-3.467,2.908-5.581c0.496-2.194,0.568-4.408-0.481-6.439c-2.218-4.294-8.848-5.136-11.809-1.396
	c-0.628,0.793-1.178,0.928-1.95,0.133c-2.317-2.389-5.511-3.071-8.452-1.876C275.533,144.634,274.079,147.046,274.08,150.586z"/>
</svg>
